<?xml version="1.0" encoding="UTF-8" standalone="no"?><svg xmlns="http://www.w3.org/2000/svg" xmlns:xlink="http://www.w3.org/1999/xlink" contentStyleType="text/css" height="683px" preserveAspectRatio="none" style="width:1239px;height:683px;background:#FFFFFF;" version="1.1" viewBox="0 0 1239 683" width="1239px" zoomAndPan="magnify"><defs/><g><!--MD5=[40422cf3aab51242a87281d7422711a2]
cluster Scanning--><g id="cluster_Scanning"><path d="M525.5,505.46 L590.5,505.46 A3.75,3.75 0 0 1 593,507.96 L600,527.9483 L1229.5,527.9483 A2.5,2.5 0 0 1 1232,530.4483 L1232,673.96 A2.5,2.5 0 0 1 1229.5,676.46 L525.5,676.46 A2.5,2.5 0 0 1 523,673.96 L523,507.96 A2.5,2.5 0 0 1 525.5,505.46 " fill="none" style="stroke:#000000;stroke-width:1.5;"/><line style="stroke:#000000;stroke-width:1.5;" x1="523" x2="600" y1="527.9483" y2="527.9483"/><text fill="#000000" font-family="sans-serif" font-size="14" font-weight="bold" lengthAdjust="spacing" textLength="64" x="527" y="520.9952">Scanning</text></g><!--MD5=[07a41b1252d92fbe4c37cd790dee2fad]
cluster Findings--><g id="cluster_Findings"><path d="M377.5,310.46 L440.5,310.46 A3.75,3.75 0 0 1 443,312.96 L450,332.9483 L997.5,332.9483 A2.5,2.5 0 0 1 1000,335.4483 L1000,478.96 A2.5,2.5 0 0 1 997.5,481.46 L377.5,481.46 A2.5,2.5 0 0 1 375,478.96 L375,312.96 A2.5,2.5 0 0 1 377.5,310.46 " fill="none" style="stroke:#000000;stroke-width:1.5;"/><line style="stroke:#000000;stroke-width:1.5;" x1="375" x2="450" y1="332.9483" y2="332.9483"/><text fill="#000000" font-family="sans-serif" font-size="14" font-weight="bold" lengthAdjust="spacing" textLength="62" x="379" y="325.9952">Findings</text></g><!--MD5=[0f1402dd4ba50f92b20010225714ea74]
cluster Analysis--><g id="cluster_Analysis"><path d="M8.5,6 L70.5,6 A3.75,3.75 0 0 1 73,8.5 L80,28.4883 L942.5,28.4883 A2.5,2.5 0 0 1 945,30.9883 L945,283.96 A2.5,2.5 0 0 1 942.5,286.46 L8.5,286.46 A2.5,2.5 0 0 1 6,283.96 L6,8.5 A2.5,2.5 0 0 1 8.5,6 " fill="none" style="stroke:#000000;stroke-width:1.5;"/><line style="stroke:#000000;stroke-width:1.5;" x1="6" x2="80" y1="28.4883" y2="28.4883"/><text fill="#000000" font-family="sans-serif" font-size="14" font-weight="bold" lengthAdjust="spacing" textLength="61" x="10" y="21.5352">Analysis</text></g><!--MD5=[be97c0cd2962e68f8fc5040f439ead74]
class TargetProject--><g id="elem_TargetProject"><rect codeLine="4" fill="#F1F1F1" height="80.9766" id="TargetProject" rx="2.5" ry="2.5" style="stroke:#181818;stroke-width:0.5;" width="124" x="1092" y="559.97"/><ellipse cx="1107" cy="575.97" fill="#ADD1B2" rx="11" ry="11" style="stroke:#181818;stroke-width:1.0;"/><path d="M1109.4731,582.1131 Q1108.8921,582.4119 1108.2529,582.5613 Q1107.6138,582.7107 1106.9082,582.7107 Q1104.4014,582.7107 1103.0815,581.0589 Q1101.7617,579.407 1101.7617,576.2859 Q1101.7617,573.1565 1103.0815,571.5047 Q1104.4014,569.8528 1106.9082,569.8528 Q1107.6138,569.8528 1108.2612,570.0022 Q1108.9087,570.1516 1109.4731,570.4505 L1109.4731,573.1731 Q1108.8423,572.5921 1108.2488,572.3223 Q1107.6553,572.0525 1107.0244,572.0525 Q1105.6797,572.0525 1104.9949,573.1192 Q1104.3101,574.1858 1104.3101,576.2859 Q1104.3101,578.3777 1104.9949,579.4444 Q1105.6797,580.511 1107.0244,580.511 Q1107.6553,580.511 1108.2488,580.2412 Q1108.8423,579.9715 1109.4731,579.3904 Z " fill="#000000"/><text fill="#000000" font-family="sans-serif" font-size="14" lengthAdjust="spacing" textLength="92" x="1121" y="581.261">TargetProject</text><line style="stroke:#181818;stroke-width:0.5;" x1="1093" x2="1215" y1="591.97" y2="591.97"/><text fill="#000000" font-family="sans-serif" font-size="14" lengthAdjust="spacing" textLength="91" x="1098" y="609.5052">target_id : str</text><text fill="#000000" font-family="sans-serif" font-size="14" lengthAdjust="spacing" textLength="68" x="1098" y="625.9934">name : str</text><line style="stroke:#181818;stroke-width:0.5;" x1="1093" x2="1215" y1="632.9466" y2="632.9466"/></g><!--MD5=[5910e465cccb2cec379e83a41f7f6503]
class Tool--><g id="elem_Tool"><rect codeLine="9" fill="#F1F1F1" height="80.9766" id="Tool" rx="2.5" ry="2.5" style="stroke:#181818;stroke-width:0.5;" width="89" x="729.5" y="559.97"/><ellipse cx="756.2" cy="575.97" fill="#ADD1B2" rx="11" ry="11" style="stroke:#181818;stroke-width:1.0;"/><path d="M758.6731,582.1131 Q758.0921,582.4119 757.4529,582.5613 Q756.8138,582.7107 756.1082,582.7107 Q753.6014,582.7107 752.2815,581.0589 Q750.9617,579.407 750.9617,576.2859 Q750.9617,573.1565 752.2815,571.5047 Q753.6014,569.8528 756.1082,569.8528 Q756.8138,569.8528 757.4612,570.0022 Q758.1087,570.1516 758.6731,570.4505 L758.6731,573.1731 Q758.0423,572.5921 757.4488,572.3223 Q756.8553,572.0525 756.2244,572.0525 Q754.8797,572.0525 754.1949,573.1192 Q753.5101,574.1858 753.5101,576.2859 Q753.5101,578.3777 754.1949,579.4444 Q754.8797,580.511 756.2244,580.511 Q756.8553,580.511 757.4488,580.2412 Q758.0423,579.9715 758.6731,579.3904 Z " fill="#000000"/><text fill="#000000" font-family="sans-serif" font-size="14" lengthAdjust="spacing" textLength="31" x="772.8" y="581.261">Tool</text><line style="stroke:#181818;stroke-width:0.5;" x1="730.5" x2="817.5" y1="591.97" y2="591.97"/><text fill="#000000" font-family="sans-serif" font-size="14" lengthAdjust="spacing" textLength="77" x="735.5" y="609.5052">tool_id : str</text><text fill="#000000" font-family="sans-serif" font-size="14" lengthAdjust="spacing" textLength="68" x="735.5" y="625.9934">name : str</text><line style="stroke:#181818;stroke-width:0.5;" x1="730.5" x2="817.5" y1="632.9466" y2="632.9466"/></g><!--MD5=[4cf87534c235239d37db4adfd136fff4]
class Rule--><g id="elem_Rule"><rect codeLine="14" fill="#F1F1F1" height="113.9531" id="Rule" rx="2.5" ry="2.5" style="stroke:#181818;stroke-width:0.5;" width="140" x="547" y="544.46"/><ellipse cx="597.75" cy="560.46" fill="#ADD1B2" rx="11" ry="11" style="stroke:#181818;stroke-width:1.0;"/><path d="M600.2231,566.6031 Q599.6421,566.9019 599.0029,567.0513 Q598.3638,567.2007 597.6582,567.2007 Q595.1514,567.2007 593.8315,565.5489 Q592.5117,563.897 592.5117,560.7759 Q592.5117,557.6465 593.8315,555.9947 Q595.1514,554.3428 597.6582,554.3428 Q598.3638,554.3428 599.0112,554.4922 Q599.6587,554.6416 600.2231,554.9405 L600.2231,557.6631 Q599.5923,557.0821 598.9988,556.8123 Q598.4053,556.5425 597.7744,556.5425 Q596.4297,556.5425 595.7449,557.6092 Q595.0601,558.6758 595.0601,560.7759 Q595.0601,562.8677 595.7449,563.9344 Q596.4297,565.001 597.7744,565.001 Q598.4053,565.001 598.9988,564.7312 Q599.5923,564.4615 600.2231,563.8804 Z " fill="#000000"/><text fill="#000000" font-family="sans-serif" font-size="14" lengthAdjust="spacing" textLength="30" x="618.25" y="565.751">Rule</text><line style="stroke:#181818;stroke-width:0.5;" x1="548" x2="686" y1="576.46" y2="576.46"/><text fill="#000000" font-family="sans-serif" font-size="14" lengthAdjust="spacing" textLength="77" x="553" y="593.9952">rule_id : str</text><text fill="#000000" font-family="sans-serif" font-size="14" lengthAdjust="spacing" textLength="77" x="553" y="610.4834">tool_id : str</text><text fill="#000000" font-family="sans-serif" font-size="14" lengthAdjust="spacing" textLength="68" x="553" y="626.9717">name : str</text><text fill="#000000" font-family="sans-serif" font-size="14" lengthAdjust="spacing" textLength="128" x="553" y="643.46">Advice : properties</text><line style="stroke:#181818;stroke-width:0.5;" x1="548" x2="686" y1="650.4131" y2="650.4131"/></g><!--MD5=[2bfd2c2b42c95f72aedcdbd83d54c641]
class ScanConfiguration--><g id="elem_ScanConfiguration"><rect codeLine="23" fill="#F1F1F1" height="113.9531" id="ScanConfiguration" rx="2.5" ry="2.5" style="stroke:#181818;stroke-width:0.5;" width="188" x="861" y="544.46"/><ellipse cx="888.6" cy="560.46" fill="#ADD1B2" rx="11" ry="11" style="stroke:#181818;stroke-width:1.0;"/><path d="M891.0731,566.6031 Q890.4921,566.9019 889.8529,567.0513 Q889.2138,567.2007 888.5082,567.2007 Q886.0014,567.2007 884.6815,565.5489 Q883.3617,563.897 883.3617,560.7759 Q883.3617,557.6465 884.6815,555.9947 Q886.0014,554.3428 888.5082,554.3428 Q889.2138,554.3428 889.8612,554.4922 Q890.5087,554.6416 891.0731,554.9405 L891.0731,557.6631 Q890.4423,557.0821 889.8488,556.8123 Q889.2553,556.5425 888.6244,556.5425 Q887.2797,556.5425 886.5949,557.6092 Q885.9101,558.6758 885.9101,560.7759 Q885.9101,562.8677 886.5949,563.9344 Q887.2797,565.001 888.6244,565.001 Q889.2553,565.001 889.8488,564.7312 Q890.4423,564.4615 891.0731,563.8804 Z " fill="#000000"/><text fill="#000000" font-family="sans-serif" font-size="14" lengthAdjust="spacing" textLength="128" x="905.4" y="565.751">ScanConfiguration</text><line style="stroke:#181818;stroke-width:0.5;" x1="862" x2="1048" y1="576.46" y2="576.46"/><text fill="#000000" font-family="sans-serif" font-size="14" lengthAdjust="spacing" textLength="143" x="867" y="593.9952">configuration_id : str</text><text fill="#000000" font-family="sans-serif" font-size="14" lengthAdjust="spacing" textLength="77" x="867" y="610.4834">tool_id : str</text><text fill="#000000" font-family="sans-serif" font-size="14" lengthAdjust="spacing" textLength="91" x="867" y="626.9717">target_id : str</text><text fill="#000000" font-family="sans-serif" font-size="14" lengthAdjust="spacing" textLength="176" x="867" y="643.46">configuration_details : url</text><line style="stroke:#181818;stroke-width:0.5;" x1="862" x2="1048" y1="650.4131" y2="650.4131"/></g><!--MD5=[93dd4858e47b96a75520f02d4eb7c3df]
class Scan--><g id="elem_Scan"><rect codeLine="36" fill="#F1F1F1" height="97.4648" id="Scan" rx="2.5" ry="2.5" style="stroke:#181818;stroke-width:0.5;" width="168" x="808" y="357.46"/><ellipse cx="871.75" cy="373.46" fill="#ADD1B2" rx="11" ry="11" style="stroke:#181818;stroke-width:1.0;"/><path d="M874.2231,379.6031 Q873.6421,379.9019 873.0029,380.0513 Q872.3638,380.2007 871.6582,380.2007 Q869.1514,380.2007 867.8315,378.5489 Q866.5117,376.897 866.5117,373.7759 Q866.5117,370.6465 867.8315,368.9947 Q869.1514,367.3428 871.6582,367.3428 Q872.3638,367.3428 873.0112,367.4922 Q873.6587,367.6416 874.2231,367.9405 L874.2231,370.6631 Q873.5923,370.0821 872.9988,369.8123 Q872.4053,369.5425 871.7744,369.5425 Q870.4297,369.5425 869.7449,370.6092 Q869.0601,371.6758 869.0601,373.7759 Q869.0601,375.8677 869.7449,376.9344 Q870.4297,378.001 871.7744,378.001 Q872.4053,378.001 872.9988,377.7312 Q873.5923,377.4615 874.2231,376.8804 Z " fill="#000000"/><text fill="#000000" font-family="sans-serif" font-size="14" lengthAdjust="spacing" textLength="32" x="892.25" y="378.751">Scan</text><line style="stroke:#181818;stroke-width:0.5;" x1="809" x2="975" y1="389.46" y2="389.46"/><text fill="#000000" font-family="sans-serif" font-size="14" lengthAdjust="spacing" textLength="81" x="814" y="406.9952">scan_id : str</text><text fill="#000000" font-family="sans-serif" font-size="14" lengthAdjust="spacing" textLength="143" x="814" y="423.4834">configuration_id : str</text><text fill="#000000" font-family="sans-serif" font-size="14" lengthAdjust="spacing" textLength="156" x="814" y="439.9717">timestamp : timestamp</text><line style="stroke:#181818;stroke-width:0.5;" x1="809" x2="975" y1="446.9248" y2="446.9248"/></g><!--MD5=[67d4d3867c8c7b356ad0dbe39b0ad498]
class ScanFinding--><g id="elem_ScanFinding"><rect codeLine="42" fill="#F1F1F1" height="113.9531" id="ScanFinding" rx="2.5" ry="2.5" style="stroke:#181818;stroke-width:0.5;" width="153" x="603.5" y="349.46"/><ellipse cx="635.15" cy="365.46" fill="#ADD1B2" rx="11" ry="11" style="stroke:#181818;stroke-width:1.0;"/><path d="M637.6231,371.6031 Q637.0421,371.9019 636.4029,372.0513 Q635.7638,372.2007 635.0582,372.2007 Q632.5514,372.2007 631.2315,370.5489 Q629.9117,368.897 629.9117,365.7759 Q629.9117,362.6465 631.2315,360.9947 Q632.5514,359.3428 635.0582,359.3428 Q635.7638,359.3428 636.4112,359.4922 Q637.0587,359.6416 637.6231,359.9405 L637.6231,362.6631 Q636.9923,362.0821 636.3988,361.8123 Q635.8053,361.5425 635.1744,361.5425 Q633.8297,361.5425 633.1449,362.6092 Q632.4601,363.6758 632.4601,365.7759 Q632.4601,367.8677 633.1449,368.9344 Q633.8297,370.001 635.1744,370.001 Q635.8053,370.001 636.3988,369.7312 Q636.9923,369.4615 637.6231,368.8804 Z " fill="#000000"/><text fill="#000000" font-family="sans-serif" font-size="14" lengthAdjust="spacing" textLength="84" x="652.85" y="370.751">ScanFinding</text><line style="stroke:#181818;stroke-width:0.5;" x1="604.5" x2="755.5" y1="381.46" y2="381.46"/><text fill="#000000" font-family="sans-serif" font-size="14" lengthAdjust="spacing" textLength="137" x="609.5" y="398.9952">scan_finding_id : str</text><text fill="#000000" font-family="sans-serif" font-size="14" lengthAdjust="spacing" textLength="81" x="609.5" y="415.4834">scan_id : str</text><text fill="#000000" font-family="sans-serif" font-size="14" lengthAdjust="spacing" textLength="77" x="609.5" y="431.9717">rule_id : str</text><text fill="#000000" font-family="sans-serif" font-size="14" lengthAdjust="spacing" textLength="141" x="609.5" y="448.46">Location : properties</text><line style="stroke:#181818;stroke-width:0.5;" x1="604.5" x2="755.5" y1="455.4131" y2="455.4131"/></g><!--MD5=[212ab272151117f7ff004c39695551e7]
class Finding--><g id="elem_Finding"><rect codeLine="54" fill="#F1F1F1" height="80.9766" id="Finding" rx="2.5" ry="2.5" style="stroke:#181818;stroke-width:0.5;" width="153" x="399.5" y="365.46"/><ellipse cx="445.75" cy="381.46" fill="#ADD1B2" rx="11" ry="11" style="stroke:#181818;stroke-width:1.0;"/><path d="M448.2231,387.6031 Q447.6421,387.9019 447.0029,388.0513 Q446.3638,388.2007 445.6582,388.2007 Q443.1514,388.2007 441.8315,386.5489 Q440.5117,384.897 440.5117,381.7759 Q440.5117,378.6465 441.8315,376.9947 Q443.1514,375.3428 445.6582,375.3428 Q446.3638,375.3428 447.0112,375.4922 Q447.6587,375.6416 448.2231,375.9405 L448.2231,378.6631 Q447.5923,378.0821 446.9988,377.8123 Q446.4053,377.5425 445.7744,377.5425 Q444.4297,377.5425 443.7449,378.6092 Q443.0601,379.6758 443.0601,381.7759 Q443.0601,383.8677 443.7449,384.9344 Q444.4297,386.001 445.7744,386.001 Q446.4053,386.001 446.9988,385.7312 Q447.5923,385.4615 448.2231,384.8804 Z " fill="#000000"/><text fill="#000000" font-family="sans-serif" font-size="14" lengthAdjust="spacing" textLength="52" x="466.25" y="386.751">Finding</text><line style="stroke:#181818;stroke-width:0.5;" x1="400.5" x2="551.5" y1="397.46" y2="397.46"/><text fill="#000000" font-family="sans-serif" font-size="14" lengthAdjust="spacing" textLength="141" x="405.5" y="414.9952">Location : properties</text><text fill="#000000" font-family="sans-serif" font-size="14" lengthAdjust="spacing" textLength="138" x="405.5" y="431.4834">specializes : Finding</text><line style="stroke:#181818;stroke-width:0.5;" x1="400.5" x2="551.5" y1="438.4366" y2="438.4366"/></g><!--MD5=[ac13618b1a974308c1f12eb6c57723dc]
class Event--><g id="elem_Event"><rect codeLine="64" fill="#F1F1F1" height="97.4648" id="Event" rx="2.5" ry="2.5" style="stroke:#181818;stroke-width:0.5;" width="84" x="428" y="41"/><ellipse cx="449.75" cy="57" fill="#ADD1B2" rx="11" ry="11" style="stroke:#181818;stroke-width:1.0;"/><path d="M452.2231,63.1431 Q451.6421,63.4419 451.0029,63.5913 Q450.3638,63.7407 449.6582,63.7407 Q447.1514,63.7407 445.8315,62.0889 Q444.5117,60.437 444.5117,57.3159 Q444.5117,54.1865 445.8315,52.5347 Q447.1514,50.8828 449.6582,50.8828 Q450.3638,50.8828 451.0112,51.0322 Q451.6587,51.1816 452.2231,51.4805 L452.2231,54.2031 Q451.5923,53.6221 450.9988,53.3523 Q450.4053,53.0825 449.7744,53.0825 Q448.4297,53.0825 447.7449,54.1492 Q447.0601,55.2158 447.0601,57.3159 Q447.0601,59.4077 447.7449,60.4744 Q448.4297,61.541 449.7744,61.541 Q450.4053,61.541 450.9988,61.2712 Q451.5923,61.0015 452.2231,60.4204 Z " fill="#000000"/><text fill="#000000" font-family="sans-serif" font-size="14" lengthAdjust="spacing" textLength="37" x="465.25" y="62.291">Event</text><line style="stroke:#181818;stroke-width:0.5;" x1="429" x2="511" y1="73" y2="73"/><text fill="#000000" font-family="sans-serif" font-size="14" lengthAdjust="spacing" textLength="69" x="434" y="90.5352">finding_id</text><text fill="#000000" font-family="sans-serif" font-size="14" lengthAdjust="spacing" textLength="46" x="434" y="107.0234">author</text><text fill="#000000" font-family="sans-serif" font-size="14" lengthAdjust="spacing" textLength="72" x="434" y="123.5117">timestamp</text><line style="stroke:#181818;stroke-width:0.5;" x1="429" x2="511" y1="130.4648" y2="130.4648"/></g><!--MD5=[df9ebda327e0d6c404685ab601921ea0]
class CommentEvent--><g id="elem_CommentEvent"><rect codeLine="81" fill="#F1F1F1" height="64.4883" id="CommentEvent" rx="2.5" ry="2.5" style="stroke:#181818;stroke-width:0.5;" width="141" x="21.5" y="202.22"/><ellipse cx="38.75" cy="218.22" fill="#ADD1B2" rx="11" ry="11" style="stroke:#181818;stroke-width:1.0;"/><path d="M41.2231,224.3631 Q40.6421,224.6619 40.0029,224.8113 Q39.3638,224.9607 38.6582,224.9607 Q36.1514,224.9607 34.8315,223.3089 Q33.5117,221.657 33.5117,218.5359 Q33.5117,215.4065 34.8315,213.7547 Q36.1514,212.1028 38.6582,212.1028 Q39.3638,212.1028 40.0112,212.2522 Q40.6587,212.4016 41.2231,212.7005 L41.2231,215.4231 Q40.5923,214.8421 39.9988,214.5723 Q39.4053,214.3025 38.7744,214.3025 Q37.4297,214.3025 36.7449,215.3692 Q36.0601,216.4358 36.0601,218.5359 Q36.0601,220.6277 36.7449,221.6944 Q37.4297,222.761 38.7744,222.761 Q39.4053,222.761 39.9988,222.4912 Q40.5923,222.2215 41.2231,221.6404 Z " fill="#000000"/><text fill="#000000" font-family="sans-serif" font-size="14" lengthAdjust="spacing" textLength="104" x="53.25" y="223.511">CommentEvent</text><line style="stroke:#181818;stroke-width:0.5;" x1="22.5" x2="161.5" y1="234.22" y2="234.22"/><text fill="#000000" font-family="sans-serif" font-size="14" lengthAdjust="spacing" textLength="129" x="27.5" y="251.7552">comment : richtext</text><line style="stroke:#181818;stroke-width:0.5;" x1="22.5" x2="161.5" y1="258.7083" y2="258.7083"/></g><!--MD5=[d00bbfcb54cfacb3be64d4b64edd752b]
class StatusEvent--><g id="elem_StatusEvent"><rect codeLine="89" fill="#F1F1F1" height="64.4883" id="StatusEvent" rx="2.5" ry="2.5" style="stroke:#181818;stroke-width:0.5;" width="147" x="197.5" y="202.22"/><ellipse cx="228.7" cy="218.22" fill="#ADD1B2" rx="11" ry="11" style="stroke:#181818;stroke-width:1.0;"/><path d="M231.1731,224.3631 Q230.5921,224.6619 229.9529,224.8113 Q229.3138,224.9607 228.6082,224.9607 Q226.1014,224.9607 224.7815,223.3089 Q223.4617,221.657 223.4617,218.5359 Q223.4617,215.4065 224.7815,213.7547 Q226.1014,212.1028 228.6082,212.1028 Q229.3138,212.1028 229.9612,212.2522 Q230.6087,212.4016 231.1731,212.7005 L231.1731,215.4231 Q230.5423,214.8421 229.9488,214.5723 Q229.3553,214.3025 228.7244,214.3025 Q227.3797,214.3025 226.6949,215.3692 Q226.0101,216.4358 226.0101,218.5359 Q226.0101,220.6277 226.6949,221.6944 Q227.3797,222.761 228.7244,222.761 Q229.3553,222.761 229.9488,222.4912 Q230.5423,222.2215 231.1731,221.6404 Z " fill="#000000"/><text fill="#000000" font-family="sans-serif" font-size="14" lengthAdjust="spacing" textLength="79" x="246.3" y="223.511">StatusEvent</text><line style="stroke:#181818;stroke-width:0.5;" x1="198.5" x2="343.5" y1="234.22" y2="234.22"/><text fill="#000000" font-family="sans-serif" font-size="14" lengthAdjust="spacing" textLength="135" x="203.5" y="251.7552">status_code : Status</text><line style="stroke:#181818;stroke-width:0.5;" x1="198.5" x2="343.5" y1="258.7083" y2="258.7083"/></g><!--MD5=[be9cd158834b6f6535c8166876f5b875]
class AttachTicketEvent--><g id="elem_AttachTicketEvent"><rect codeLine="93" fill="#F1F1F1" height="64.4883" id="AttachTicketEvent" rx="2.5" ry="2.5" style="stroke:#181818;stroke-width:0.5;" width="181" x="379.5" y="202.22"/><ellipse cx="406.65" cy="218.22" fill="#ADD1B2" rx="11" ry="11" style="stroke:#181818;stroke-width:1.0;"/><path d="M409.1231,224.3631 Q408.5421,224.6619 407.9029,224.8113 Q407.2638,224.9607 406.5582,224.9607 Q404.0514,224.9607 402.7315,223.3089 Q401.4117,221.657 401.4117,218.5359 Q401.4117,215.4065 402.7315,213.7547 Q404.0514,212.1028 406.5582,212.1028 Q407.2638,212.1028 407.9112,212.2522 Q408.5587,212.4016 409.1231,212.7005 L409.1231,215.4231 Q408.4923,214.8421 407.8988,214.5723 Q407.3053,214.3025 406.6744,214.3025 Q405.3297,214.3025 404.6449,215.3692 Q403.9601,216.4358 403.9601,218.5359 Q403.9601,220.6277 404.6449,221.6944 Q405.3297,222.761 406.6744,222.761 Q407.3053,222.761 407.8988,222.4912 Q408.4923,222.2215 409.1231,221.6404 Z " fill="#000000"/><text fill="#000000" font-family="sans-serif" font-size="14" lengthAdjust="spacing" textLength="122" x="423.35" y="223.511">AttachTicketEvent</text><line style="stroke:#181818;stroke-width:0.5;" x1="380.5" x2="559.5" y1="234.22" y2="234.22"/><text fill="#000000" font-family="sans-serif" font-size="14" lengthAdjust="spacing" textLength="169" x="385.5" y="251.7552">link to jira, poam, or URL</text><line style="stroke:#181818;stroke-width:0.5;" x1="380.5" x2="559.5" y1="258.7083" y2="258.7083"/></g><!--MD5=[68eba15c5caa1a0728bb09a8ff398668]
class ScanFindingEvent--><g id="elem_ScanFindingEvent"><rect codeLine="76" fill="#F1F1F1" height="64.4883" id="ScanFindingEvent" rx="2.5" ry="2.5" style="stroke:#181818;stroke-width:0.5;" width="153" x="603.5" y="202.46"/><ellipse cx="618.5" cy="218.46" fill="#ADD1B2" rx="11" ry="11" style="stroke:#181818;stroke-width:1.0;"/><path d="M620.9731,224.6031 Q620.3921,224.9019 619.7529,225.0513 Q619.1138,225.2007 618.4082,225.2007 Q615.9014,225.2007 614.5815,223.5489 Q613.2617,221.897 613.2617,218.7759 Q613.2617,215.6465 614.5815,213.9947 Q615.9014,212.3428 618.4082,212.3428 Q619.1138,212.3428 619.7612,212.4922 Q620.4087,212.6416 620.9731,212.9405 L620.9731,215.6631 Q620.3423,215.0821 619.7488,214.8123 Q619.1553,214.5425 618.5244,214.5425 Q617.1797,214.5425 616.4949,215.6092 Q615.8101,216.6758 615.8101,218.7759 Q615.8101,220.8677 616.4949,221.9344 Q617.1797,223.001 618.5244,223.001 Q619.1553,223.001 619.7488,222.7312 Q620.3423,222.4615 620.9731,221.8804 Z " fill="#000000"/><text fill="#000000" font-family="sans-serif" font-size="14" lengthAdjust="spacing" textLength="121" x="632.5" y="223.751">ScanFindingEvent</text><line style="stroke:#181818;stroke-width:0.5;" x1="604.5" x2="755.5" y1="234.46" y2="234.46"/><text fill="#000000" font-family="sans-serif" font-size="14" lengthAdjust="spacing" textLength="107" x="609.5" y="251.9952">scan_finding_id</text><line style="stroke:#181818;stroke-width:0.5;" x1="604.5" x2="755.5" y1="258.9483" y2="258.9483"/></g><!--MD5=[4b7bf412da67dc4fda7dec65dabe4544]
class SeverityEvent--><g id="elem_SeverityEvent"><rect codeLine="85" fill="#F1F1F1" height="64.4883" id="SeverityEvent" rx="2.5" ry="2.5" style="stroke:#181818;stroke-width:0.5;" width="129" x="799.5" y="202.22"/><ellipse cx="817.65" cy="218.22" fill="#ADD1B2" rx="11" ry="11" style="stroke:#181818;stroke-width:1.0;"/><path d="M820.1231,224.3631 Q819.5421,224.6619 818.9029,224.8113 Q818.2638,224.9607 817.5582,224.9607 Q815.0514,224.9607 813.7315,223.3089 Q812.4117,221.657 812.4117,218.5359 Q812.4117,215.4065 813.7315,213.7547 Q815.0514,212.1028 817.5582,212.1028 Q818.2638,212.1028 818.9112,212.2522 Q819.5587,212.4016 820.1231,212.7005 L820.1231,215.4231 Q819.4923,214.8421 818.8988,214.5723 Q818.3053,214.3025 817.6744,214.3025 Q816.3297,214.3025 815.6449,215.3692 Q814.9601,216.4358 814.9601,218.5359 Q814.9601,220.6277 815.6449,221.6944 Q816.3297,222.761 817.6744,222.761 Q818.3053,222.761 818.8988,222.4912 Q819.4923,222.2215 820.1231,221.6404 Z " fill="#000000"/><text fill="#000000" font-family="sans-serif" font-size="14" lengthAdjust="spacing" textLength="90" x="832.35" y="223.511">SeverityEvent</text><line style="stroke:#181818;stroke-width:0.5;" x1="800.5" x2="927.5" y1="234.22" y2="234.22"/><text fill="#000000" font-family="sans-serif" font-size="14" lengthAdjust="spacing" textLength="117" x="805.5" y="251.7552">severity : Severity</text><line style="stroke:#181818;stroke-width:0.5;" x1="800.5" x2="927.5" y1="258.7083" y2="258.7083"/></g><!--MD5=[12ab6c36308aaca1536f7f5e0327cbc8]
link Rule to Tool--><g id="link_Rule_Tool"><path codeLine="21" d="M688,604.46 C697.77,608.85 708.16,611.84 718.2,613.57 " fill="none" id="Rule-to-Tool" style="stroke:#181818;stroke-width:1.0;"/><polygon fill="#181818" points="727.84,614.8,719.4147,609.6996,722.8797,614.171,718.4083,617.6361,727.84,614.8" style="stroke:#181818;stroke-width:1.0;"/></g><!--MD5=[b5d18dc654440731e2da9d7a7e9f5af5]
link ScanConfiguration to TargetProject--><g id="link_ScanConfiguration_TargetProject"><path codeLine="30" d="M1050,620.46 C1059.86,624.05 1070.16,625.99 1080.26,626.66 " fill="none" id="ScanConfiguration-to-TargetProject" style="stroke:#181818;stroke-width:1.0;"/><polygon fill="#181818" points="1090.04,626.86,1081.1218,622.6808,1085.041,626.76,1080.9618,630.6792,1090.04,626.86" style="stroke:#181818;stroke-width:1.0;"/></g><!--MD5=[c1fb8fb3fcf5cd0cce719b7ba6897cce]
link ScanConfiguration to Tool--><g id="link_ScanConfiguration_Tool"><path codeLine="31" d="M860,604.46 C850.34,604.46 840.06,604.2 830.12,603.81 " fill="none" id="ScanConfiguration-to-Tool" style="stroke:#181818;stroke-width:1.0;"/><polygon fill="#181818" points="820.17,603.37,828.9905,607.7517,825.1654,603.5841,829.333,599.759,820.17,603.37" style="stroke:#181818;stroke-width:1.0;"/></g><!--MD5=[48dbb175dc2d62306811285f39e9551c]
link ScanFinding to Scan--><g id="link_ScanFinding_Scan"><path codeLine="49" d="M758,409.46 C768.01,412.34 778.44,414.61 788.86,416.33 " fill="none" id="ScanFinding-to-Scan" style="stroke:#181818;stroke-width:1.0;"/><polygon fill="#181818" points="798.65,417.75,790.3295,412.4803,793.7034,417.0209,789.1629,420.3948,798.65,417.75" style="stroke:#181818;stroke-width:1.0;"/></g><!--MD5=[873a6991f0031c68976b1d70471c6efa]
link ScanFinding to Rule--><g id="link_ScanFinding_Rule"><path codeLine="50" d="M602,425.46 C579.32,425.46 588.27,484.88 599.63,534.27 " fill="none" id="ScanFinding-to-Rule" style="stroke:#181818;stroke-width:1.0;"/><polygon fill="#181818" points="600.75,539.08,602.5886,529.4043,599.608,534.2122,594.8001,531.2315,600.75,539.08" style="stroke:#181818;stroke-width:1.0;"/></g><!--MD5=[739e8c0da42074028d28540fbd714ec6]
link Scan to ScanConfiguration--><g id="link_Scan_ScanConfiguration"><path codeLine="52" d="M977,417.46 C1025.65,417.46 1008.36,482.35 986.53,534.64 " fill="none" id="Scan-to-ScanConfiguration" style="stroke:#181818;stroke-width:1.0;"/><polygon fill="#181818" points="984.58,539.23,991.7842,532.5144,986.5375,534.6291,984.4228,529.3824,984.58,539.23" style="stroke:#181818;stroke-width:1.0;"/></g><!--MD5=[60b90ea0f4436ef791b22725fb087ca5]
link Finding to Finding--><g id="link_Finding_Finding"><path codeLine="59" d="M478.81,417.55 C493.44,370.59 492.51,275.96 476,275.96 C464.06,275.96 460.27,316.15 464.62,355.39 " fill="none" id="Finding-to-Finding" style="stroke:#181818;stroke-width:1.0;"/><polygon fill="#181818" points="465.2,360.17,468.0896,350.7546,464.5992,355.2062,460.1475,351.7159,465.2,360.17" style="stroke:#181818;stroke-width:1.0;"/></g><!--MD5=[7a8e47f80741834712a1034c926d0771]
reverse link Event to CommentEvent--><g id="link_Event_CommentEvent"><path codeLine="70" d="M407.46,113.49 C348.62,135.02 258.13,168.41 180,198.46 C174.32,200.64 168.45,202.93 162.55,205.24 " fill="none" id="Event-backto-CommentEvent" style="stroke:#181818;stroke-width:1.0;"/><polygon fill="none" points="405.01,106.93,426.2,106.65,409.82,120.08,405.01,106.93" style="stroke:#181818;stroke-width:1.0;"/></g><!--MD5=[06dd5ab40c32f34c59e6f7db7a752d70]
reverse link Event to StatusEvent--><g id="link_Event_StatusEvent"><path codeLine="71" d="M410.59,133.34 C379.98,155.3 343.29,181.61 315.21,201.75 " fill="none" id="Event-backto-StatusEvent" style="stroke:#181818;stroke-width:1.0;"/><polygon fill="none" points="406.24,127.85,426.57,121.88,414.4,139.22,406.24,127.85" style="stroke:#181818;stroke-width:1.0;"/></g><!--MD5=[381368fbc6dcb2b47f6a4855d70a5196]
reverse link Event to AttachTicketEvent--><g id="link_Event_AttachTicketEvent"><path codeLine="72" d="M470,160.16 C470,174.84 470,189.63 470,202.04 " fill="none" id="Event-backto-AttachTicketEvent" style="stroke:#181818;stroke-width:1.0;"/><polygon fill="none" points="463,160.17,470,140.17,477,160.17,463,160.17" style="stroke:#181818;stroke-width:1.0;"/></g><!--MD5=[5b6789da01b14c57d4cc211f8cfd18c0]
reverse link Event to ScanFindingEvent--><g id="link_Event_ScanFindingEvent"><path codeLine="73" d="M529.99,131.5 C561.16,152.68 598.85,178.31 628.66,198.57 " fill="none" id="Event-backto-ScanFindingEvent" style="stroke:#181818;stroke-width:1.0;"/><polygon fill="none" points="526.35,137.49,513.75,120.46,534.22,125.92,526.35,137.49" style="stroke:#181818;stroke-width:1.0;"/></g><!--MD5=[0129dcadbfbf1f07a7dcb1cedf4e20fc]
reverse link Event to SeverityEvent--><g id="link_Event_SeverityEvent"><path codeLine="74" d="M532.87,110.98 C596.22,131.73 696.56,165.52 782,198.46 C787.63,200.63 793.45,202.95 799.27,205.33 " fill="none" id="Event-backto-SeverityEvent" style="stroke:#181818;stroke-width:1.0;"/><polygon fill="none" points="530.77,117.66,513.92,104.8,535.11,104.35,530.77,117.66" style="stroke:#181818;stroke-width:1.0;"/></g><!--MD5=[4f21601328a30929b3646b2073d8b9dc]
link ScanFindingEvent to ScanFinding--><g id="link_ScanFindingEvent_ScanFinding"><path codeLine="79" d="M758,246.46 C802.18,246.46 771.68,296.75 736.71,340.59 " fill="none" id="ScanFindingEvent-to-ScanFinding" style="stroke:#181818;stroke-width:1.0;"/><polygon fill="#181818" points="733.6,344.45,742.3518,339.9327,736.7287,340.5498,736.1115,334.9268,733.6,344.45" style="stroke:#181818;stroke-width:1.0;"/></g><!--MD5=[7aa290c36b46bfdb64d58189528b07a0]
@startuml vuln-db

package Scanning {

    class TargetProject {
        target_id : str
        name : str
    }

    class Tool {
        tool_id : str
        name : str
    }

    class Rule {
        rule_id : str
        tool_id : str
        name : str
        Advice : properties
    }

    Rule::tool_id -> Tool

    class ScanConfiguration {
        configuration_id : str
        tool_id : str
        target_id : str
        configuration_details : url
    }

    ScanConfiguration::target_id -> TargetProject
    ScanConfiguration::tool_id -> Tool
}

package Findings {

    class Scan {
        scan_id : str
        configuration_id : str
        timestamp : timestamp
    }

    class ScanFinding {
        scan_finding_id : str
        scan_id : str
        rule_id : str
        Location : properties
    }

    ScanFinding::scan_id -> Scan
    ScanFinding::rule_id -> Rule

    Scan::configuration_id - -> ScanConfiguration

    class Finding {
        Location : properties
        specializes : Finding
    }

    Finding::specializes -> Finding
}

package Analysis {

    class Event {
        finding_id
        author
        timestamp
    }

    Event <|- - CommentEvent
    Event <|- - StatusEvent
    Event <|- - AttachTicketEvent
    Event <|- - ScanFindingEvent
    Event <|- - SeverityEvent

    class ScanFindingEvent {
        scan_finding_id
    }
    ScanFindingEvent::scan_finding_id -d-> ScanFinding

    class CommentEvent {
        comment : richtext
    }

    class SeverityEvent {
        severity : Severity
    }

    class StatusEvent{
        status_code : Status
    }

    class AttachTicketEvent {
        link to jira, poam, or URL
    }
}

@enduml

PlantUML version 1.2022.7(Mon Aug 22 13:01:30 EDT 2022)
(GPL source distribution)
Java Runtime: OpenJDK Runtime Environment
JVM: OpenJDK 64-Bit Server VM
Default Encoding: UTF-8
Language: en
Country: US
--></g></svg>